<?xml version="1.0" standalone="no"?>
<!DOCTYPE svg PUBLIC "-//W3C//DTD SVG 20010904//EN"
 "http://www.w3.org/TR/2001/REC-SVG-20010904/DTD/svg10.dtd">
<svg version="1.0" xmlns="http://www.w3.org/2000/svg"
 width="64.000000pt" height="64.000000pt" viewBox="0 0 64.000000 64.000000"
 preserveAspectRatio="xMidYMid meet">

<g transform="translate(0.000000,64.000000) scale(0.100000,-0.100000)"
fill="#000000" stroke="none">
<path d="M152 630 c-64 -6 -77 -10 -104 -38 -30 -30 -32 -35 -41 -153 -7 -82
-7 -161 0 -242 10 -112 13 -121 40 -149 26 -26 39 -30 129 -39 55 -6 155 -8
224 -4 205 10 225 30 235 235 4 69 2 169 -4 224 -9 89 -13 103 -39 128 -25 25
-39 30 -118 38 -98 11 -210 11 -322 0z m268 -144 c0 -32 -3 -35 -32 -38 -30
-3 -33 -6 -36 -40 -3 -38 -3 -38 33 -38 36 0 36 0 33 -37 -3 -35 -6 -38 -35
-41 l-33 -3 0 -85 0 -84 -40 0 -40 0 0 85 c0 84 0 85 -25 85 -22 0 -25 4 -25
40 0 36 3 40 25 40 23 0 25 4 25 46 0 65 39 104 104 104 46 0 46 0 46 -34z"/>
</g>
</svg>
