<?xml version="1.0" standalone="no"?>
<!DOCTYPE svg PUBLIC "-//W3C//DTD SVG 20010904//EN"
 "http://www.w3.org/TR/2001/REC-SVG-20010904/DTD/svg10.dtd">
<svg version="1.0" xmlns="http://www.w3.org/2000/svg"
 width="64.000000pt" height="64.000000pt" viewBox="0 0 64.000000 64.000000"
 preserveAspectRatio="xMidYMid meet">

<g transform="translate(0.000000,64.000000) scale(0.100000,-0.100000)"
fill="#000000" stroke="none">
<path d="M450 565 c-71 -71 -73 -75 -46 -75 17 0 38 -11 57 -29 29 -29 29 -31
29 -141 0 -110 0 -112 -29 -141 -29 -29 -31 -29 -141 -29 -110 0 -112 0 -141
29 -18 19 -29 40 -29 58 0 26 -4 24 -75 -47 -74 -74 -75 -75 -65 -111 21 -74
21 -74 311 -74 l259 0 27 28 28 27 3 243 c3 256 -1 286 -40 310 -57 36 -69 31
-148 -48z"/>
<path d="M315 430 c-18 -19 -17 -20 7 -20 14 0 37 -9 51 -20 68 -54 25 -160
-64 -160 -30 0 -79 53 -79 86 0 26 0 27 -20 9 -14 -13 -20 -31 -20 -60 0 -62
24 -79 116 -83 131 -7 159 21 152 152 -4 92 -21 116 -83 116 -29 0 -47 -6 -60
-20z m115 -20 c0 -13 -7 -20 -20 -20 -13 0 -20 7 -20 20 0 13 7 20 20 20 13 0
20 -7 20 -20z"/>
<path d="M282 358 c-15 -15 -15 -61 0 -76 15 -15 61 -15 76 0 7 7 12 24 12 38
0 33 -17 50 -50 50 -14 0 -31 -5 -38 -12z"/>
</g>
</svg>
